# xmcd
#
# Track frame offsets:
#	150
#	12082
#	27057
#	41155
#	57560
#	72350
#	88285
#	108337
#	125542
#	143462
#	156415
#	175355
#	191777
#	209582
#	224722
#	239632
#
# Disc length: 3464 seconds
#
# Revision: 1
# Processed by: cddbd v1.4PL0 Copyright (c) Steve Scherf et al.
# Submitted via: audiograbber 1.80.04
#
DISCID=fa0d8610
DTITLE=Sérgio Reis - O Melhor de
DYEAR=1900
DGENRE=Sertanejo
TTITLE0=Procissão
TTITLE1=Calix Bento
TTITLE2=Rei do Gado
TTITLE3=Tocador de Boi
TTITLE4=Trem do Pantanal
TTITLE5=Boiadeiro Errante
TTITLE6=Chico Mulato
TTITLE7=Filho Adotivo
TTITLE8=Berrante de Ouro
TTITLE9=Saudade de Minha Terra
TTITLE10=Mágoa de Boiadeiro
TTITLE11=Chico Mineiro
TTITLE12=Serafim e seus Filhos
TTITLE13=O Menino da Porteira
TTITLE14=Panela Velha
TTITLE15=Pinga ni mim
EXTD=
EXTT0=
EXTT1=
EXTT2=
EXTT3=
EXTT4=
EXTT5=
EXTT6=
EXTT7=
EXTT8=
EXTT9=
EXTT10=
EXTT11=
EXTT12=
EXTT13=
EXTT14=
EXTT15=
PLAYORDER=
